<?xml version="1.0" encoding="iso-8859-1"?>
<!-- Uploaded to: SVG Repo, www.svgrepo.com, Generator: SVG Repo Mixer Tools -->
<svg height="800px" width="800px" version="1.1" id="Layer_1" xmlns="http://www.w3.org/2000/svg" xmlns:xlink="http://www.w3.org/1999/xlink" 
	 viewBox="0 0 512 512" xml:space="preserve">
<path style="fill:#FF6647;" d="M409.921,230.347c-13.178,0-25.722,2.715-37.108,7.608c7.308-13.748,11.454-29.433,11.454-46.089
	c0-54.31-44.028-98.338-98.338-98.338s-98.338,44.028-98.338,98.338v226.605h222.33c51.949,0,94.063-42.113,94.063-94.063
	S461.87,230.347,409.921,230.347z"/>
<path style="fill:#E35336;" d="M435.574,392.818h-222.33V166.213c0-20.601,6.339-39.718,17.166-55.518
	c-25.854,17.718-42.82,47.461-42.82,81.172v226.605h222.33c32.532,0,61.205-16.517,78.097-41.621
	C473.034,386.933,454.992,392.818,435.574,392.818z"/>
<path d="M409.921,222.33c-7.783,0-15.435,0.863-22.892,2.574c3.462-10.625,5.256-21.805,5.256-33.037
	c0-29.839-12.654-58.491-34.716-78.609c-3.273-2.983-8.344-2.75-11.326,0.523c-2.983,3.272-2.749,8.342,0.522,11.325
	c18.739,17.086,29.486,41.42,29.486,66.761c0,14.746-3.636,29.383-10.516,42.326c-1.581,2.973-1.099,6.716,1.18,9.192
	c2.279,2.476,5.97,3.263,9.063,1.936c10.741-4.617,22.161-6.957,33.943-6.957c47.446,0,86.046,38.6,86.046,86.046
	s-38.6,86.046-86.046,86.046h-145.37c-4.428,0-8.017,3.589-8.017,8.017c0,4.427,3.588,8.017,8.017,8.017h145.37
	c56.287,0,102.079-45.792,102.079-102.079S466.208,222.33,409.921,222.33z"/>
<path d="M230.347,410.455h-34.739V191.866c0-49.803,40.517-90.322,90.322-90.322c12.269,0,24.16,2.414,35.344,7.175
	c4.078,1.737,8.783-0.164,10.516-4.236c1.735-4.074-0.161-8.782-4.236-10.516c-13.182-5.612-27.185-8.457-41.624-8.457
	c-58.644,0-106.355,47.711-106.355,106.355v226.605c0,4.427,3.588,8.017,8.017,8.017h42.756c4.428,0,8.017-3.589,8.017-8.017
	C238.363,414.044,234.775,410.455,230.347,410.455z"/>
<path d="M161.937,205.228c-4.428,0-8.017,3.589-8.017,8.017v205.228c0,4.427,3.588,8.017,8.017,8.017
	c4.428,0,8.017-3.589,8.017-8.017V213.244C169.954,208.817,166.366,205.228,161.937,205.228z"/>
<path d="M136.284,198.832c-4.428,0-8.017,3.589-8.017,8.017v211.623c0,4.427,3.588,8.017,8.017,8.017
	c4.428,0,8.017-3.589,8.017-8.017V206.849C144.301,202.422,140.712,198.832,136.284,198.832z"/>
<path d="M110.63,222.33c-4.428,0-8.017,3.589-8.017,8.017v188.125c0,4.427,3.588,8.017,8.017,8.017c4.428,0,8.017-3.589,8.017-8.017
	V230.347C118.647,225.919,115.059,222.33,110.63,222.33z"/>
<path d="M84.977,282.188c-4.428,0-8.017,3.589-8.017,8.017v128.267c0,4.427,3.588,8.017,8.017,8.017
	c4.428,0,8.017-3.589,8.017-8.017V290.205C92.994,285.777,89.405,282.188,84.977,282.188z"/>
<path d="M59.324,275.793c-4.428,0-8.017,3.589-8.017,8.017v132.508c0,4.427,3.588,8.017,8.017,8.017s8.017-3.589,8.017-8.017
	V283.809C67.34,279.382,63.752,275.793,59.324,275.793z"/>
<path d="M33.67,288.662c-4.428,0-8.017,3.589-8.017,8.017v106.769c0,4.427,3.588,8.017,8.017,8.017s8.017-3.589,8.017-8.017V296.679
	C41.687,292.252,38.099,288.662,33.67,288.662z"/>
<path d="M8.017,324.944c-4.428,0-8.017,3.589-8.017,8.017v34.205c0,4.427,3.588,8.017,8.017,8.017s8.017-3.589,8.017-8.017V332.96
	C16.033,328.533,12.445,324.944,8.017,324.944z"/>
</svg>